<?xml version="1.0" encoding="utf-8"?>
<!-- Generator: Adobe Illustrator 24.1.1, SVG Export Plug-In . SVG Version: 6.00 Build 0)  -->
<svg version="1.1" id="Camada_1" xmlns="http://www.w3.org/2000/svg" xmlns:xlink="http://www.w3.org/1999/xlink" x="0px" y="0px"
	 viewBox="0 0 24 24" style="enable-background:new 0 0 24 24;" xml:space="preserve">
<style type="text/css">
	.st0{fill:#fff;}
</style>
<path class="st0" d="M12,6.9c-2.7,0-5,2.2-5,5c0,0.9,0.3,1.9,0.8,2.6l0.1,0.2l-0.5,1.8l1.9-0.5l0.2,0.1c0.8,0.5,1.6,0.7,2.5,0.7h0
	c2.7,0,5-2.2,5-5c0-1.3-0.5-2.6-1.5-3.5C14.6,7.4,13.4,6.9,12,6.9z M15,14c-0.1,0.4-0.7,0.7-1,0.7c-0.3,0.1-0.6,0-0.9-0.1
	c-0.3-0.1-0.6-0.2-0.9-0.3c-1.5-0.6-2.5-2.2-2.6-2.3C9.5,12,9,11.3,9,10.6c0-0.7,0.4-1.1,0.5-1.2c0.1-0.1,0.2-0.2,0.4-0.2
	c0.1,0,0.2,0,0.3,0c0.1,0,0.2,0,0.3,0.3c0.1,0.3,0.4,1,0.5,1.1c0,0.1,0.1,0.2,0,0.3c-0.1,0.1-0.1,0.2-0.1,0.3
	c-0.1,0.1-0.2,0.2-0.2,0.3c-0.1,0.1-0.2,0.2-0.1,0.3c0.1,0.1,0.4,0.6,0.8,1c0.6,0.5,1.1,0.7,1.2,0.7c0.1,0.1,0.2,0.1,0.3,0
	c0.1-0.1,0.4-0.4,0.5-0.6c0.1-0.1,0.2-0.1,0.3-0.1c0.1,0.1,0.9,0.4,1,0.5c0.1,0.1,0.2,0.1,0.3,0.2C15.1,13.4,15.1,13.7,15,14z"/>
<path class="st0" d="M20,3H4C3.4,3,3,3.4,3,4v16c0,0.6,0.4,1,1,1h16c0.6,0,1-0.4,1-1V4C21,3.4,20.6,3,20,3z M12,17.9L12,17.9
	c-1,0-2-0.3-2.9-0.7L6,18l0.8-3.1C5.2,12,6.2,8.4,9,6.7C10,6.2,11,5.9,12,5.9c1.6,0,3.1,0.6,4.2,1.8c1.1,1.1,1.8,2.6,1.8,4.2
	C18,15.2,15.3,17.9,12,17.9z"/>
</svg>
