<?xml version="1.0" encoding="UTF-8"?>
<svg id="Camada_1" data-name="Camada 1" xmlns="http://www.w3.org/2000/svg" viewBox="0 0 791.56 791.56">
  <defs>
    <style>
      .cls-1 {
        fill: none;
        stroke: #fff;
        stroke-miterlimit: 10;
        stroke-width: 11px;
      }

      .cls-2 {
        fill: #fff;
        stroke-width: 0px;
      }
    </style>
  </defs>
  <path class="cls-2" d="M745.73,430.16c-5.42-6.34-17.47-12.81-25.29-18.46-4-2.85-6.94-5.55-8.61-8.18-.83-1.14-1.33-2.49-1.46-3.89-.07-1.29.2-2.57.21-3.86-.21-127.07-76.62-241.61-193.86-290.61-7-2.91-14-5.47-21.14-7.85,7.12,2.4,14.15,5.07,21.08,8,116.87,49.15,192.8,163.67,192.57,290.46-.05,1.28.15,2.56,0,3.84-.2,1.39-.77,2.71-1.65,3.81-1.81,2.51-4.86,4.94-9,7.23-8.45,4.59-21.38,8.36-27.54,12.27-3.14,2-5.09,4-5.45,6.17l-.82,6.62c-.61,4.41-1.5,8.77-2.2,13.16-3.33,17.5-8.16,34.69-14.44,51.36-12.86,33.85-31.37,65.27-54.73,92.93-24.35,28.57-53.27,52.9-85.59,72-16.84,9.94-34.46,18.51-52.68,25.61-18.49,7.11-37.42,13.03-56.67,17.71l.14-265.81,31-43.63,20.34,2.19c56.41-4.97,98.11-54.72,93.14-111.13-1.16-13.21-4.88-26.08-10.94-37.87l-39.35,68.3-70.26,12.47-24-65.93v-1.88l39.69-68.75c-13.72.34-27.23,3.44-39.72,9.13l-.07-123.06c26.9-.92,53.77,2.28,79.7,9.49-26.05-6.98-52.75-11.29-79.67-12.86v-.14h-1.77l-1.77-.1v.1h-.13c-41.39-9.31-86.14-7-128.79,5.13-43.53,12.58-83.7,34.74-117.55,64.87-34.72,30.7-62.36,68.57-81,111-9.4,21.33-16.48,43.6-21.12,66.44-1,5.74-2.17,11.45-3,17.21l-1.11,8.67c-.23,2.9.88,6,3.64,9.12,5.42,6.33,17.47,12.81,25.29,18.46,4,2.85,6.94,5.55,8.61,8.18.13.19.2.39.31.58-.06,2.69-.17,5.37-.16,8.06-.06,83.79,33.34,164.13,92.78,223.18,57.91,58,139,92,221.29,92.6.3,0,.61.01.91.06l1.79.11v-.11h0c41.41,9.34,86.19,7.06,128.86-5.1,43.54-12.57,83.71-34.73,117.57-64.84,34.71-30.7,62.35-68.58,81-111,9.4-21.33,16.48-43.6,21.12-66.44,1-5.74,2.17-11.45,3-17.21l1.11-8.67c.26-2.92-.85-5.99-3.61-9.14ZM276.14,686.55c-4.74-1.92-9.43-3.95-14.06-6.1l-.15-.07c-1.3-.6-2.56-1.28-3.85-1.9-107.77-52.93-175.97-162.64-175.73-282.71.05-1.28-.15-2.56,0-3.84.19-1.4.76-2.72,1.65-3.81,1.81-2.51,4.86-4.94,9-7.23,8.45-4.59,21.38-8.36,27.54-12.27,3.14-2,5.09-4,5.45-6.17l.82-6.62c.6-4.41,1.5-8.77,2.2-13.16,3.32-17.51,8.15-34.69,14.44-51.36,12.85-33.85,31.36-65.28,54.73-92.93,24.34-28.58,53.26-52.91,85.59-72,16.84-9.94,34.46-18.51,52.68-25.61,18.49-7.11,37.42-13.02,56.67-17.7v125.2c-47.03,24.61-67.48,81.06-47.12,130.08l9.54,14,3.36,6.08-120.61,224.9,41.5,26.36,113.33-159.29v258.52c-40.06.07-79.77-7.53-116.98-22.37ZM104.53,517.24c-16.07-38.18-24.43-79.16-24.59-120.58,0-2.65.12-5.3.18-8,.6.97.98,2.06,1.09,3.2.07,1.29-.2,2.57-.21,3.86.05,108.01,55.51,208.43,146.9,266-55.06-34.27-98.15-84.74-123.37-144.48Z"/>
  <path class="cls-2" d="M449.6,721.29c-17.71.04-35.36-1.85-52.66-5.63l-2.62-.19h-.32c-83.28-.61-164.71-34.68-223.42-93.48-59.99-59.62-93.7-140.72-93.65-225.3,0-1.94,0-3.89.1-5.78v-1.52c-1.42-2.11-3.93-4.43-7.64-7.08-2.42-1.75-5.23-3.56-8.21-5.48-6.7-4.33-13.63-8.8-17.62-13.47-3.14-3.55-4.66-7.47-4.35-11.31v-.14l1.11-8.67c.57-3.94,1.29-7.85,2-11.63.35-1.9.7-3.81,1-5.72,4.7-23.08,11.87-45.58,21.38-67.13,18.89-42.78,46.77-80.98,81.76-112,34.23-30.37,74.78-52.75,118.73-65.51,44-12.53,88.81-14.36,129.54-5.33l2,.11h4.69v.28c21.14,1.39,42.13,4.45,62.79,9.15,7.64,1.74,14.68,3.64,14.68,3.64,6.95,1.9,12.9,3.78,17.6,5.36-.64,1.9-1.28,3.79-1.91,5.69-10.34-3.57-20.89-6.52-31.58-8.83-9-1.95-16.18-3-19.58-3.49-13.89-1.93-27.9-2.73-41.92-2.41l.06,115.6c11.66-4.72,24.08-7.28,36.65-7.58l5.35-.13-42,72.68v.55l22.93,63.06,66.4-11.78,41.4-71.82,2.51,4.9c26.65,51.83,6.23,115.45-45.6,142.09-12.15,6.25-25.39,10.07-39,11.27h-.29l-18.89-2-29.42,41.37-.14,261c17.85-4.49,35.41-10.04,52.59-16.63,18.06-7.05,35.53-15.54,52.23-25.4,32.05-18.91,60.72-43.02,84.83-71.36,23.16-27.39,41.49-58.52,54.21-92.05,6.22-16.51,11-33.52,14.3-50.85.27-1.71.59-3.49.9-5.28.45-2.54.92-5.16,1.28-7.73l.83-6.7c.64-3.89,4.19-6.55,6.8-8.21,3.45-2.19,8.6-4.24,14.05-6.4,4.67-1.74,9.23-3.74,13.67-6,3.76-2.08,6.46-4.22,8-6.35l.1-.12c.54-.68.88-1.49,1-2.35.04-.57.04-1.13,0-1.7v-1.78c.41-125.63-74.87-239.15-190.76-287.65-6.83-2.88-13.85-5.55-20.87-7.92l1.91-5.69c8,2.66,14.94,5.25,21.35,7.93,118.35,49.47,195.49,165.1,195.7,293.37,0,.72-.07,1.38-.13,2-.07.56-.1,1.12-.09,1.68.09.85.4,1.66.9,2.35l.1.15c1.38,2.18,3.94,4.58,7.82,7.34,2.42,1.75,5.23,3.57,8.2,5.49,6.7,4.32,13.62,8.79,17.62,13.45,3.21,3.68,4.67,7.5,4.33,11.35v.11l-1.11,8.67c-.56,3.94-1.28,7.84-2,11.62-.35,1.9-.71,3.81-1,5.72-4.69,23.08-11.84,45.59-21.33,67.14-18.89,42.77-46.77,80.97-81.75,112-34.23,30.36-74.79,52.73-118.73,65.48-24.97,7.19-50.82,10.89-76.81,10.98ZM402.21,710.64c38.71,7.83,81,5.74,122.51-6.1,43.08-12.5,82.83-34.43,116.39-64.19,34.35-30.47,61.72-67.99,80.25-110,9.31-21.13,16.33-43.2,20.93-65.83.32-1.85.67-3.77,1-5.7.68-3.72,1.39-7.57,1.94-11.34l1.09-8.56c.18-2.14-.79-4.43-2.88-6.81h0c-3.43-4-10-8.24-16.32-12.33-3-2-5.92-3.82-8.45-5.65-4.22-3-7.19-5.79-9-8.47-2.67,3.15-5.94,5.74-9.62,7.61-4.66,2.37-9.44,4.48-14.34,6.3-5.18,2.06-10.07,4-13.05,5.88-3.24,2.07-4,3.43-4.09,4.08l-.81,6.55c-.37,2.72-.85,5.4-1.31,8-.31,1.75-.62,3.5-.9,5.26-3.36,17.7-8.24,35.08-14.6,51.94-12.96,34.18-31.64,65.9-55.24,93.81-24.55,28.85-53.74,53.4-86.36,72.65-16.98,10.02-34.74,18.66-53.11,25.82-17.65,6.79-35.69,12.49-54.03,17.08h0ZM277.26,683.77c35.91,14.36,74.19,21.86,112.86,22.14v-246.12l-109.54,154-46.25-29.38,121.18-225.96-2.5-4.53-9.64-14.14-.11-.28c-20.68-49.79-.47-107.17,46.86-133v-119.6c-17.85,4.5-35.41,10.07-52.6,16.67-18.06,7.06-35.53,15.56-52.23,25.43-32.05,18.91-60.72,43.02-84.83,71.36-23.16,27.39-41.49,58.52-54.21,92.05-6.2,16.5-10.96,33.5-14.25,50.82-.26,1.68-.58,3.45-.89,5.22-.46,2.55-.93,5.2-1.28,7.78l-.83,6.71c-.65,3.89-4.19,6.55-6.8,8.21-3.45,2.19-8.6,4.23-14.06,6.39-4.66,1.74-9.22,3.75-13.66,6-3.77,2.09-6.47,4.23-8,6.35l-.1.13c-.54.68-.88,1.49-1,2.35-.04.56-.04,1.13,0,1.69,0,.57.05,1.15,0,1.78-.22,118,68.1,227.93,174,280l1.68.84c.7.35,1.4.71,2.11,1l.16.08c4.58,2.08,9.26,4.11,13.93,6.01ZM242.26,582.29l36.74,23.34,116.6-163.89h0l32.57-45.84,21.8,2.34c54.74-4.98,95.08-53.39,90.1-108.12-.99-10.85-3.75-21.47-8.18-31.43l-37.2,64.58-74.12,13.15-25-68.79v-3.22l37.33-64.66c-11.46.9-22.67,3.81-33.12,8.58l-3.66,1.67v.12l-1.61.84c-45.72,23.69-65.65,78.47-45.83,126l9.51,14,4.15,7.51-120.08,223.82ZM81.64,385.48c.09.14.19.27.28.4,2.67-3.15,5.95-5.74,9.63-7.62,4.65-2.37,9.44-4.47,14.33-6.3,5.18-2,10.08-4,13.05-5.88,3.25-2.06,4-3.43,4.09-4.08l.81-6.54c.37-2.75.85-5.45,1.32-8.06.31-1.74.62-3.47.89-5.2,3.36-17.7,8.25-35.09,14.6-51.95,12.96-34.18,31.65-65.9,55.25-93.81,24.55-28.84,53.73-53.39,86.35-72.65,16.99-10.01,34.75-18.63,53.12-25.79,17.64-6.77,35.67-12.47,54-17.06-38.66-7.82-80.9-5.72-122.5,6.1-43.08,12.51-82.84,34.44-116.4,64.2-34.34,30.47-61.72,67.99-80.25,110-9.3,21.11-16.32,43.16-20.94,65.76-.32,1.85-.68,3.78-1,5.7-.69,3.72-1.4,7.57-1.94,11.35l-1.1,8.54c-.15,2.19.83,4.48,2.9,6.83,3.46,4,10,8.27,16.36,12.37,3,2,5.92,3.82,8.44,5.65,1.52,1.07,2.99,2.21,4.39,3.43l.06-2.24,4.26,6.85Z"/>
  <circle class="cls-1" cx="395.78" cy="395.78" r="390.28"/>
</svg>