<svg xmlns="http://www.w3.org/2000/svg" viewBox="0 0 791.56 791.56"><defs><style>.cls-1{fill:none;stroke:#000;stroke-miterlimit:10;stroke-width:11px;}</style></defs><g id="Camada_2" data-name="Camada 2"><g id="Camada_1-2" data-name="Camada 1"><path d="M745.73,430.16c-5.42-6.34-17.47-12.81-25.29-18.46-4-2.85-6.94-5.55-8.61-8.18a7.88,7.88,0,0,1-1.46-3.89c-.07-1.29.2-2.57.21-3.86A315.52,315.52,0,0,0,516.72,105.16c-7-2.91-14-5.47-21.14-7.85q10.68,3.6,21.08,8A314.47,314.47,0,0,1,709.23,395.77c-.05,1.28.15,2.56,0,3.84a7.91,7.91,0,0,1-1.65,3.81c-1.81,2.51-4.86,4.94-9,7.23-8.45,4.59-21.38,8.36-27.54,12.27-3.14,2-5.09,4-5.45,6.17l-.82,6.62c-.61,4.41-1.5,8.77-2.2,13.16a310.18,310.18,0,0,1-14.44,51.36,320.37,320.37,0,0,1-54.73,92.93,339,339,0,0,1-85.59,72,362.8,362.8,0,0,1-52.68,25.61,462,462,0,0,1-56.67,17.71l.14-265.81,31-43.63,20.34,2.19a102.53,102.53,0,0,0,82.2-149l-39.35,68.3L422.53,333l-24-65.93v-1.88l39.69-68.75a101.89,101.89,0,0,0-39.72,9.13l-.07-123.06A263.64,263.64,0,0,1,478.13,92a397.21,397.21,0,0,0-79.67-12.86V79h-1.77l-1.77-.1V79h-.13C353.4,69.69,308.65,72,266,84.13A303.57,303.57,0,0,0,148.45,149a320,320,0,0,0-81,111,325.17,325.17,0,0,0-21.12,66.44c-1,5.74-2.17,11.45-3,17.21l-1.11,8.67c-.23,2.9.88,6,3.64,9.12,5.42,6.33,17.47,12.81,25.29,18.46,4,2.85,6.94,5.55,8.61,8.18.13.19.2.39.31.58-.06,2.69-.17,5.37-.16,8.06a314.3,314.3,0,0,0,92.78,223.18c57.91,58,139,92,221.29,92.6a4.69,4.69,0,0,1,.91.06l1.79.11v-.11h0c41.41,9.34,86.19,7.06,128.86-5.1a303.77,303.77,0,0,0,117.57-64.84,320.3,320.3,0,0,0,81-111,325.36,325.36,0,0,0,21.12-66.44c1-5.74,2.17-11.45,3-17.21l1.11-8.67C749.6,436.38,748.49,433.31,745.73,430.16ZM276.14,686.55q-7.11-2.88-14.06-6.1l-.15-.07c-1.3-.6-2.56-1.28-3.85-1.9A314.27,314.27,0,0,1,82.35,395.77c.05-1.28-.15-2.56,0-3.84A7.69,7.69,0,0,1,84,388.12c1.81-2.51,4.86-4.94,9-7.23,8.45-4.59,21.38-8.36,27.54-12.27,3.14-2,5.09-4,5.45-6.17l.82-6.62c.6-4.41,1.5-8.77,2.2-13.16a308,308,0,0,1,14.44-51.36,319.8,319.8,0,0,1,54.73-92.93,338.45,338.45,0,0,1,85.59-72,362.8,362.8,0,0,1,52.68-25.61,461.94,461.94,0,0,1,56.67-17.7v125.2A102.45,102.45,0,0,0,346,338.35l9.54,14,3.36,6.08L238.29,583.33l41.5,26.36L393.12,450.4V708.92A314.29,314.29,0,0,1,276.14,686.55ZM104.53,517.24A314,314,0,0,1,79.94,396.66c0-2.65.12-5.3.18-8a7.44,7.44,0,0,1,1.09,3.2c.07,1.29-.2,2.57-.21,3.86a314.56,314.56,0,0,0,146.9,266A314,314,0,0,1,104.53,517.24Z"/><path d="M449.6,721.29a243.59,243.59,0,0,1-52.66-5.63l-2.62-.19H394c-83.28-.61-164.71-34.68-223.42-93.48a317.37,317.37,0,0,1-93.65-225.3c0-1.94,0-3.89.1-5.78,0-.51,0-1,0-1.52-1.42-2.11-3.93-4.43-7.64-7.08-2.42-1.75-5.23-3.56-8.21-5.48-6.7-4.33-13.63-8.8-17.62-13.47-3.14-3.55-4.66-7.47-4.35-11.31v-.14l1.11-8.67c.57-3.94,1.29-7.85,2-11.63.35-1.9.7-3.81,1-5.72A328.88,328.88,0,0,1,64.7,258.76a325.33,325.33,0,0,1,81.76-112A308.41,308.41,0,0,1,265.19,81.25c44-12.53,88.81-14.36,129.54-5.33l2,.11h4.69v.28a401.06,401.06,0,0,1,62.79,9.15c7.64,1.74,14.68,3.64,14.68,3.64,6.95,1.9,12.9,3.78,17.6,5.36-.64,1.9-1.28,3.79-1.91,5.69A274.93,274.93,0,0,0,463,91.32c-9-1.95-16.18-3-19.58-3.49a260.92,260.92,0,0,0-41.92-2.41l.06,115.6a104.25,104.25,0,0,1,36.65-7.58l5.35-.13-42,72.68v.55l22.93,63.06,66.4-11.78L532.29,246l2.51,4.9a105.52,105.52,0,0,1-84.6,153.36l-.29,0-18.89-2L401.6,443.63l-.14,261A462,462,0,0,0,454.05,688a360.75,360.75,0,0,0,52.23-25.4,334.76,334.76,0,0,0,84.83-71.36,316.31,316.31,0,0,0,54.21-92.05,306.68,306.68,0,0,0,14.3-50.85c.27-1.71.59-3.49.9-5.28.45-2.54.92-5.16,1.28-7.73l.83-6.7c.64-3.89,4.19-6.55,6.8-8.21,3.45-2.19,8.6-4.24,14.05-6.4a132.17,132.17,0,0,0,13.67-6c3.76-2.08,6.46-4.22,8-6.35l.1-.12a4.87,4.87,0,0,0,1-2.35,12.14,12.14,0,0,0,0-1.7c0-.56,0-1.15,0-1.78A310.71,310.71,0,0,0,515.49,108.07c-6.83-2.88-13.85-5.55-20.87-7.92l1.91-5.69c8,2.66,14.94,5.25,21.35,7.93a318.54,318.54,0,0,1,195.7,293.37c0,.72-.07,1.38-.13,2a12.73,12.73,0,0,0-.09,1.68,4.88,4.88,0,0,0,.9,2.35l.1.15c1.38,2.18,3.94,4.58,7.82,7.34,2.42,1.75,5.23,3.57,8.2,5.49,6.7,4.32,13.62,8.79,17.62,13.45,3.21,3.68,4.67,7.5,4.33,11.35l0,.11-1.11,8.67c-.56,3.94-1.28,7.84-2,11.62-.35,1.9-.71,3.81-1,5.72a329.16,329.16,0,0,1-21.33,67.14,325.4,325.4,0,0,1-81.75,112,308.51,308.51,0,0,1-118.73,65.48A281,281,0,0,1,449.6,721.29Zm-47.39-10.65c38.71,7.83,81,5.74,122.51-6.1a302.4,302.4,0,0,0,116.39-64.19,319.25,319.25,0,0,0,80.25-110,323.09,323.09,0,0,0,20.93-65.83c.32-1.85.67-3.77,1-5.7.68-3.72,1.39-7.57,1.94-11.34l1.09-8.56c.18-2.14-.79-4.43-2.88-6.81l0,0c-3.43-4-10-8.24-16.32-12.33-3-2-5.92-3.82-8.45-5.65-4.22-3-7.19-5.79-9-8.47a31.15,31.15,0,0,1-9.62,7.61,136.36,136.36,0,0,1-14.34,6.3c-5.18,2.06-10.07,4-13.05,5.88-3.24,2.07-4,3.43-4.09,4.08l-.81,6.55c-.37,2.72-.85,5.4-1.31,8-.31,1.75-.62,3.5-.9,5.26a312.49,312.49,0,0,1-14.6,51.94,322.16,322.16,0,0,1-55.24,93.81,340.83,340.83,0,0,1-86.36,72.65,365.66,365.66,0,0,1-53.11,25.82A464.34,464.34,0,0,1,402.21,710.64ZM277.26,683.77a310,310,0,0,0,112.86,22.14V459.79l-109.54,154-46.25-29.38L355.51,358.45l-2.5-4.53-9.64-14.14-.11-.28a105.44,105.44,0,0,1,46.86-133V86.9a462.19,462.19,0,0,0-52.6,16.67A361.2,361.2,0,0,0,285.29,129a334.76,334.76,0,0,0-84.83,71.36,316.31,316.31,0,0,0-54.21,92.05A308,308,0,0,0,132,343.23c-.26,1.68-.58,3.45-.89,5.22-.46,2.55-.93,5.2-1.28,7.78l-.83,6.71c-.65,3.89-4.19,6.55-6.8,8.21-3.45,2.19-8.6,4.23-14.06,6.39a132.91,132.91,0,0,0-13.66,6c-3.77,2.09-6.47,4.23-8,6.35l-.1.13a4.82,4.82,0,0,0-1,2.35,11.82,11.82,0,0,0,0,1.69c0,.57.05,1.15,0,1.78-.22,118,68.1,227.93,174,280l1.68.84c.7.35,1.4.71,2.11,1l.16.08C267.91,679.84,272.59,681.87,277.26,683.77Zm-35-101.48L279,605.63,395.6,441.74v0l32.57-45.84,21.8,2.34a99.52,99.52,0,0,0,81.92-139.55l-37.2,64.58-74.12,13.15-25-68.79v-3.22l37.33-64.66a98.26,98.26,0,0,0-33.12,8.58L396.12,210v.12l-1.61.84a99,99,0,0,0-45.83,126l9.51,14,4.15,7.51ZM81.64,385.48c.09.14.19.27.28.4a31.25,31.25,0,0,1,9.63-7.62,137.34,137.34,0,0,1,14.33-6.3c5.18-2,10.08-4,13.05-5.88,3.25-2.06,4-3.43,4.09-4.08l.81-6.54c.37-2.75.85-5.45,1.32-8.06.31-1.74.62-3.47.89-5.2a313.57,313.57,0,0,1,14.6-51.95,322.23,322.23,0,0,1,55.25-93.81,341.19,341.19,0,0,1,86.35-72.65A367.31,367.31,0,0,1,335.36,98a469,469,0,0,1,54-17.06c-38.66-7.82-80.9-5.72-122.5,6.1a302.59,302.59,0,0,0-116.4,64.2,319.44,319.44,0,0,0-80.25,110A323.69,323.69,0,0,0,49.27,327c-.32,1.85-.68,3.78-1,5.7-.69,3.72-1.4,7.57-1.94,11.35l-1.1,8.54c-.15,2.19.83,4.48,2.9,6.83,3.46,4,10,8.27,16.36,12.37,3,2,5.92,3.82,8.44,5.65a53.57,53.57,0,0,1,4.39,3.43l.06-2.24Z"/><circle class="cls-1" cx="395.78" cy="395.78" r="390.28"/></g></g></svg>