<svg xmlns="http://www.w3.org/2000/svg" viewBox="0 0 211.86 147.81"><defs><style>.cls-1{fill:#fff;}</style></defs><g id="Camada_2" data-name="Camada 2"><g id="Camada_1-2" data-name="Camada 1"><path class="cls-1" d="M29.92,118.3a61.94,61.94,0,0,1-15.74-1.87,39.75,39.75,0,0,1-12.07-5.16L0,84c4,4,9.44,9.52,14,11s11.28,3.3,16.08,3.3a34.31,34.31,0,0,0,7.38-.74,18.5,18.5,0,0,0,5.9-2.3,11.66,11.66,0,0,0,3.9-3.91,10.38,10.38,0,0,0,1.41-5.47,14.6,14.6,0,0,0-1.76-7.46,21.41,21.41,0,0,0-4.84-5.58Q39,70.26,34.92,67.29a83,83,0,0,1-9.26-7.81,37.22,37.22,0,0,1-7.38-10.2,30.24,30.24,0,0,1-2.89-13.63,34.46,34.46,0,0,1,2.77-14,32.11,32.11,0,0,1,7.93-11A35.76,35.76,0,0,1,38.47,3.42,48.54,48.54,0,0,1,54.61.88,66.14,66.14,0,0,1,71,2.8,61.49,61.49,0,0,1,85.62,8.62l-8.51,18.2A67.17,67.17,0,0,0,65.5,22.48,42.9,42.9,0,0,0,54.61,21a18.48,18.48,0,0,0-5.9.9A14.12,14.12,0,0,0,44,24.52a11.66,11.66,0,0,0-3.09,4,12.38,12.38,0,0,0-1.09,5.31,13.58,13.58,0,0,0,1.68,6.95,18.85,18.85,0,0,0,4.84,5.36q3.16,2.46,7.62,5.43a51.75,51.75,0,0,1,10.51,8.86,32.83,32.83,0,0,1,6.25,10.28A34.77,34.77,0,0,1,72.81,83a34.23,34.23,0,0,1-3.36,15.63,30.88,30.88,0,0,1-9.26,11,41.15,41.15,0,0,1-13.67,6.53A62.18,62.18,0,0,1,29.92,118.3Z"/><path class="cls-1" d="M67,120,97,2.52h30.94q21,0,32.58,11.1T172,45.73a99,99,0,0,1-2.74,24,70.92,70.92,0,0,1-8,19.73,54.47,54.47,0,0,1-13,14.8,56.37,56.37,0,0,1-17.85,9.3C123.67,115.67,105.18,118,97,118Zm33.86-23.26h8.28a35.91,35.91,0,0,0,14.1-2.62A32.54,32.54,0,0,0,134,86.82a41.06,41.06,0,0,0,7.58-10.94,57.54,57.54,0,0,0,4.49-13.63A77.23,77.23,0,0,0,147.58,47q0-12.58-5.86-18.6t-16.1-6h-9Z"/><path class="cls-1" d="M147.4,147.81c-3.2,0-47.4-3.33-56.4-4.33-5.14-.57-80-7.43-82-8l-4-12c1.82.36,82,2.52,97,3.52,6,.4,41.05.5,43.61.5a18.28,18.28,0,0,0,9-2.11,17.76,17.76,0,0,0,6.49-6.44c1.77-2.89,16-61.42,16.92-65.95L190,0h21.86L188.18,111.17q-2.81,13.13-8.08,21.17a31.65,31.65,0,0,1-13.32,11.76Q158.73,147.81,147.4,147.81Z"/></g></g></svg>